<svg width="900" height="680" viewBox="0 0 900 680" fill="none" xmlns="http://www.w3.org/2000/svg">
  <rect width="900" height="680" rx="24" fill="#EDF3FA"/>
  <rect x="52" y="46" width="796" height="588" rx="20" fill="white"/>
  <rect x="108" y="98" width="684" height="26" rx="13" fill="#0F3B72"/>
  <rect x="108" y="152" width="498" height="16" rx="8" fill="#B7CBE4"/>
  <rect x="108" y="188" width="592" height="16" rx="8" fill="#B7CBE4"/>
  <rect x="108" y="252" width="260" height="190" rx="18" fill="#E0ECF8"/>
  <rect x="398" y="252" width="338" height="18" rx="9" fill="#0F3B72"/>
  <rect x="398" y="292" width="286" height="14" rx="7" fill="#B7CBE4"/>
  <rect x="398" y="328" width="304" height="14" rx="7" fill="#B7CBE4"/>
  <rect x="398" y="364" width="250" height="14" rx="7" fill="#B7CBE4"/>
  <rect x="108" y="490" width="628" height="16" rx="8" fill="#B7CBE4"/>
  <rect x="108" y="528" width="558" height="16" rx="8" fill="#B7CBE4"/>
  <rect x="604" y="565" width="132" height="28" rx="14" fill="#0F3B72"/>
</svg>
