<svg width="900" height="680" viewBox="0 0 900 680" fill="none" xmlns="http://www.w3.org/2000/svg">
  <rect width="900" height="680" rx="24" fill="#EEF4FB"/>
  <rect x="52" y="46" width="796" height="588" rx="20" fill="white"/>
  <rect x="110" y="94" width="680" height="24" rx="12" fill="#1A5EAF"/>
  <rect x="110" y="144" width="398" height="14" rx="7" fill="#B6CCE4"/>
  <rect x="110" y="176" width="484" height="14" rx="7" fill="#B6CCE4"/>
  <rect x="110" y="236" width="210" height="270" rx="20" fill="#0F3B72"/>
  <rect x="350" y="236" width="440" height="20" rx="10" fill="#0F3B72"/>
  <rect x="350" y="278" width="392" height="13" rx="6.5" fill="#B6CCE4"/>
  <rect x="350" y="309" width="356" height="13" rx="6.5" fill="#B6CCE4"/>
  <rect x="350" y="340" width="410" height="13" rx="6.5" fill="#B6CCE4"/>
  <rect x="350" y="371" width="298" height="13" rx="6.5" fill="#B6CCE4"/>
  <rect x="350" y="447" width="440" height="59" rx="18" fill="#F4F8FD"/>
  <rect x="378" y="469" width="212" height="14" rx="7" fill="#1A5EAF"/>
  <rect x="110" y="542" width="680" height="18" rx="9" fill="#B6CCE4"/>
  <rect x="642" y="582" width="148" height="24" rx="12" fill="#0F3B72"/>
</svg>
