<svg width="900" height="680" viewBox="0 0 900 680" fill="none" xmlns="http://www.w3.org/2000/svg">
  <rect width="900" height="680" rx="24" fill="#EAF2FB"/>
  <rect x="54" y="46" width="792" height="588" rx="20" fill="white"/>
  <rect x="122" y="94" width="656" height="24" rx="12" fill="#0A2342"/>
  <rect x="122" y="142" width="446" height="14" rx="7" fill="#B5C9E3"/>
  <rect x="122" y="176" width="530" height="14" rx="7" fill="#B5C9E3"/>
  <rect x="122" y="228" width="656" height="140" rx="20" fill="#F4F8FD"/>
  <rect x="150" y="262" width="232" height="18" rx="9" fill="#1A5EAF"/>
  <rect x="150" y="300" width="520" height="12" rx="6" fill="#B5C9E3"/>
  <rect x="150" y="330" width="484" height="12" rx="6" fill="#B5C9E3"/>
  <rect x="122" y="406" width="310" height="150" rx="20" fill="#DDEAF8"/>
  <rect x="468" y="406" width="310" height="150" rx="20" fill="#DDEAF8"/>
  <rect x="522" y="574" width="256" height="18" rx="9" fill="#0F3B72"/>
</svg>
